<svg xmlns="http://www.w3.org/2000/svg" viewBox="0 0 293 145"><defs><style>.cls-1{fill:#f5f7fd;}.cls-2{fill:#375bd2;}</style></defs><g id="Layer_2" data-name="Layer 2"><g id="Layer_1-2" data-name="Layer 1"><rect class="cls-1" width="293" height="145"/><path class="cls-2" d="M117.57,72.14a10,10,0,0,1,9.67-10.39h.4c5.1,0,8.12,3,9,6.5l-3.2,1.08a5.56,5.56,0,0,0-5.83-4.38c-3.3,0-6.6,2.4-6.6,7.27s3.22,7.18,6.64,7.18a6,6,0,0,0,6-4.41l3.11,1a9,9,0,0,1-9.11,6.63,9.9,9.9,0,0,1-10.09-9.72C117.55,72.65,117.55,72.4,117.57,72.14Z"/><path class="cls-2" d="M142.91,82.14h-3.28V61.69h3.28v8a4.92,4.92,0,0,1,3.9-1.73c3.4,0,5,2.43,5,5.46v8.7h-3.18V74a2.66,2.66,0,0,0-2.24-3,2.41,2.41,0,0,0-.6,0A2.84,2.84,0,0,0,143,73.81a1.93,1.93,0,0,0,0,.24Z"/><path class="cls-2" d="M159.17,74.26l3.52-.54c.79-.11,1-.51,1-1,0-1.16-.78-2.1-2.6-2.1A2.6,2.6,0,0,0,158.29,73s0,.09,0,.13l-3-.68c.25-2.38,2.41-4.49,5.79-4.49,4.24,0,5.85,2.4,5.85,5.2V80a12.58,12.58,0,0,0,.17,2.21H164a8.5,8.5,0,0,1-.13-1.75,4.8,4.8,0,0,1-4.24,2.17,4.31,4.31,0,0,1-4.65-4c0-.06,0-.13,0-.2C155,76,156.81,74.6,159.17,74.26Zm4.53,2.21v-.62l-3.59.53a1.9,1.9,0,0,0-1.83,1.87A1.82,1.82,0,0,0,160.13,80h.15a3.14,3.14,0,0,0,3.44-2.8A2.84,2.84,0,0,0,163.7,76.47Z"/><path class="cls-2" d="M172.49,61.4a2.16,2.16,0,0,1,2.18,2.12v0a2.14,2.14,0,1,1-2.18-2.15Zm-1.6,20.81V68.38h3.24V82.14Z"/><path class="cls-2" d="M181.65,82.14h-3.28V68.38h3.2v1.84A4.56,4.56,0,0,1,185.64,68c3.36,0,5,2.43,5,5.46v8.7h-3.28V74c0-1.69-.77-3-2.82-3a2.89,2.89,0,0,0-2.88,2.91,1.94,1.94,0,0,0,0,.34Z"/><path class="cls-2" d="M194.6,82.14V61.69h3.28V82.14Z"/><path class="cls-2" d="M203.73,61.4a2.14,2.14,0,1,1-2.12,2.12A2.14,2.14,0,0,1,203.73,61.4Zm-1.61,20.81V68.38h3.25V82.14Z"/><path class="cls-2" d="M212.88,82.14h-3.27V68.38h3.18v1.84A4.58,4.58,0,0,1,216.86,68c3.37,0,5,2.43,5,5.46v8.7h-3.27V74a2.68,2.68,0,0,0-2.24-3,2.41,2.41,0,0,0-.6,0,2.88,2.88,0,0,0-2.87,2.9c0,.12,0,.23,0,.35Z"/><path class="cls-2" d="M233.05,74.2l5.77,7.94h-4l-4.05-5.67-1.69,1.78v3.91h-3.25V61.69h3.25V74l5.28-5.57h4.36Z"/><path class="cls-2" d="M78.74,56.16,92.91,64.3V80.65L78.78,88.84,64.6,80.71V64.37l14.14-8.21m0-12-5.2,3L59.38,55.37l-5.2,3V86.73l5.2,3,14.17,8.14,5.2,3,5.2-3,14.14-8.21,5.2-3V58.27l-5.2-3L83.91,47.14l-5.2-3Z"/></g></g></svg>